<?xml version="1.0" encoding="UTF-8"?>
<svg id="a" xmlns="http://www.w3.org/2000/svg" version="1.1" xmlns:xlink="http://www.w3.org/1999/xlink" viewBox="0 0 600 600">
  <!-- Generator: Adobe Illustrator 29.1.0, SVG Export Plug-In . SVG Version: 2.1.0 Build 142)  -->
  <defs>
    <style>
      .st0 {
        fill: #393536;
      }

      .st1 {
        fill: none;
      }

      .st2 {
        clip-path: url(#clippath-1);
      }

      .st3 {
        clip-path: url(#clippath);
      }

      .st4 {
        fill: #eeb30d;
      }
    </style>
    <clipPath id="clippath">
      <rect class="st1" x="124.2" y="23.7" width="140.5" height="383.6"/>
    </clipPath>
    <clipPath id="clippath-1">
      <rect class="st1" x="280.2" y="96.1" width="140" height="383.8"/>
    </clipPath>
  </defs>
  <g class="st3">
    <path class="st0" d="M124.3,238.5v-47.7c9.7-.5,17-2,21.9-4.4,4.9-2.4,9.2-6.4,12.7-12,3.6-5.6,6.1-12.7,7.4-21.1,1.1-6.4,1.6-17.4,1.6-33.2,0-25.7,1.2-43.6,3.6-53.8s6.7-18.3,12.9-24.4c6.3-6.2,15.4-11,27.3-14.6,8.1-2.4,20.9-3.6,38.3-3.6h10.6v47.5c-14.7,0-24.2.8-28.4,2.5-4.2,1.7-7.3,4.2-9.3,7.5-2,3.4-3,9.2-3,17.4s-.6,24.2-1.8,47.5c-.7,13.1-2.4,23.7-5.2,31.9s-6.4,14.9-10.7,20.2c-4.3,5.3-10.9,10.8-19.8,16.5,7.8,4.5,14.3,9.8,19.2,15.8,5,6,8.8,13.4,11.5,22,2.7,8.6,4.4,20.1,5.2,34.6.9,22,1.4,36,1.4,42.1,0,8.7,1.1,14.8,3.2,18.3s5.4,6.1,9.7,7.8c4.3,1.8,13.7,2.7,28,2.7v47.7h-10.6c-17.9,0-31.7-1.4-41.3-4.3-9.6-2.9-17.6-7.6-24.2-14.2-6.6-6.6-11-14.8-13.3-24.5-2.3-9.7-3.4-25.1-3.4-46s-1.1-40.2-3.2-47.5c-2.9-10.6-7.4-18.2-13.3-22.7-5.9-4.6-15-7.2-27.2-7.9"/>
  </g>
  <path class="st4" d="M426.9,122.7h-31.2v-31.1h31.2v31.1"/>
  <path class="st4" d="M419.5,184.9h-23.8v-23.7h23.8v23.7"/>
  <g class="st2">
    <path class="st4" d="M328.7,146.4v-23.8h23.8v23.8h-23.8ZM389.3,257.5c-6-4.6-10.4-12.2-13.4-22.7-1.6-6-2.6-17.4-2.9-34.4h-20.6v-31.1h20.1c-.5-12-1.5-21.3-3.1-28-2.3-9.7-6.7-17.9-13.3-24.6-6.5-6.7-14.5-11.4-24.1-14.2-9.6-2.8-23.3-4.2-41.3-4.2h-10.6v47.5c15,0,24.7.9,29,2.7,4.3,1.8,7.3,4.3,9,7.7,1.7,3.3,2.5,9.9,2.7,19.9.7,31.5,1.7,51.9,3.2,61.2,2.3,13.5,6.5,24.6,12.8,33.4,4.5,6.1,11.7,12.3,21.5,18.7-7.6,4.4-13.8,9.4-18.6,15.2-4.9,5.8-8.7,12.8-11.7,21.1-2.9,8.3-4.7,19.3-5.4,33.1-1.1,22.8-1.6,38.2-1.7,46.3,0,8.1-1.1,13.8-3.2,17.2-2,3.4-5.3,6-9.7,7.8-4.4,1.8-13.7,2.7-27.9,2.7v47.7h10.6c17.4,0,30.2-1.2,38.3-3.6,12.1-3.6,21.3-8.4,27.5-14.6,6.2-6.2,10.5-14.3,12.9-24.6,2.3-10.2,3.5-28.1,3.5-53.8s.5-26.6,1.6-33c1.5-8.5,4-15.5,7.5-21.1,3.5-5.6,7.7-9.6,12.7-12,4.9-2.4,12.2-3.9,21.9-4.4v-47.7c-12.2-.7-21.4-3.3-27.3-7.8"/>
  </g>
  <path class="st4" d="M487.7,62.3h-23.8v-23.8h23.8v23.8"/>
  <path class="st4" d="M368.1,91.6h-44.5v-44.3h44.5v44.3"/>
  <path class="st0" d="M58.5,486.1h7.2l20.4,52.7h-11.9l-3.2-8.7h-17.9l-3.1,8.7h-12l20.4-52.7ZM67.6,520.3l-5.4-15.2-5.5,15.2h10.9Z"/>
  <path class="st0" d="M107.1,487h11.3v51.8h-11.3v-51.8Z"/>
  <path class="st0" d="M144.5,487h11.3v41.2h17.9v10.6h-29.2v-51.8h0Z"/>
  <path class="st0" d="M196.3,487h29.6v10.6h-18.3v9.5h13.4v10.6h-13.4v10.5h18.7v10.6h-30v-51.8h0Z"/>
  <path class="st0" d="M260.1,520.3l-15.8-33.3h12.3l9.5,21,9.7-21h11.7l-16.1,33.1v18.7h-11.3v-18.5h0Z"/>
  <path class="st0" d="M349.6,497.6h-15.1v-10.6h41.4v10.6h-15.1v41.2h-11.3v-41.2Z"/>
  <path class="st0" d="M397.8,487h29.6v10.6h-18.3v9.5h13.4v10.6h-13.4v10.5h18.7v10.6h-30v-51.8h0Z"/>
  <path class="st0" d="M475.7,539.9c-3.9,0-7.4-.7-10.8-2-3.3-1.3-6.1-3.2-8.5-5.6s-4.3-5.2-5.6-8.5c-1.4-3.3-2-6.9-2-10.8s.7-7.4,2-10.7c1.4-3.3,3.2-6.2,5.6-8.6,2.4-2.4,5.2-4.3,8.5-5.7,3.3-1.4,6.8-2,10.6-2s7.7.8,11.2,2.3c3.5,1.5,6.5,3.8,9,6.6l-7.9,7.7c-1.5-1.8-3.2-3.1-5.3-4.1-2-1-4.3-1.5-6.7-1.5s-4.3.4-6.1,1.2c-1.9.8-3.5,1.9-4.8,3.3-1.4,1.4-2.4,3.1-3.2,5.1-.7,2-1.1,4.1-1.1,6.3s.4,4.5,1.2,6.4c.8,1.9,1.8,3.6,3.2,5.1,1.4,1.4,3,2.6,4.9,3.3,1.9.8,4,1.2,6.3,1.2s4.7-.5,6.8-1.5c2.1-1,3.8-2.4,5.3-4.2l7.9,7.5c-2.5,2.9-5.5,5.2-9,6.8-3.5,1.6-7.3,2.4-11.5,2.4h0Z"/>
  <path class="st0" d="M518,487h11.3v20.3h20.2v-20.3h11.3v51.8h-11.3v-20.9h-20.2v20.9h-11.3v-51.8h0Z"/>
  <path class="st4" d="M46.2,571.6l-4.7-17h2.2l3.7,14.6,4.2-14.6h2.3l4,14.6,3.7-14.6h2.2l-4.8,17h-2.3l-4-14-4.1,14h-2.3s0,0,0,0Z"/>
  <path class="st4" d="M85.5,571.5v-17h10.5v1.7h-8.5v5.9h7.7v1.6h-7.7v6.1h8.5v1.7h-10.5Z"/>
  <path class="st4" d="M118.6,571.5v-17h6c1.2,0,2.2.2,2.9.6.8.4,1.4.9,1.8,1.6.4.6.6,1.4.6,2.2s-.3,2-.9,2.6c-.6.6-1.3,1-2.1,1.3.6.1,1.2.4,1.7.8.5.4.9.9,1.2,1.5.3.6.4,1.2.4,1.9s-.2,1.6-.7,2.3c-.4.7-1,1.3-1.8,1.7s-1.8.6-3,.6h-6.2,0ZM120.6,562h3.8c1.1,0,1.9-.2,2.5-.8.6-.5.9-1.2.9-2.1s-.3-1.5-.9-2c-.6-.5-1.4-.8-2.6-.8h-3.7v5.7h0ZM120.6,569.8h3.9c1.2,0,2.1-.3,2.7-.8.6-.5,1-1.3,1-2.3s-.3-1.7-1-2.3c-.7-.6-1.6-.9-2.7-.9h-3.8v6.2h0Z"/>
  <path class="st4" d="M157.5,571.8c-1.2,0-2.2-.2-3.1-.6-.9-.4-1.6-1-2.1-1.8-.5-.8-.7-1.7-.7-2.7s.3-2.2,1-3.1c.7-.9,1.6-1.6,2.9-2.1-.6-.6-.9-1.2-1.2-1.7-.2-.5-.3-1.1-.3-1.8,0-1.1.4-2,1.1-2.7.8-.7,1.8-1.1,3.2-1.1s1.6.2,2.3.5c.7.3,1.2.8,1.5,1.4.4.6.5,1.2.5,2h-2c0-.7-.2-1.2-.7-1.6-.5-.4-1-.6-1.6-.6s-1.3.2-1.7.6c-.4.4-.6.9-.6,1.5s.1,1,.4,1.5c.3.5.7,1,1.3,1.6l5.4,5.4c.4-.7,1-1.5,1.5-2.4l.8-1.3h2.2l-1.1,1.9c-.7,1.3-1.4,2.3-2,3.2l3.7,3.7h-2.6l-2.3-2.3c-.9.9-1.8,1.6-2.7,2-.9.4-1.9.6-3.1.6h0ZM153.7,566.6c0,1,.3,1.8,1.1,2.5.7.7,1.6,1,2.8,1s1.6-.2,2.3-.5c.7-.3,1.4-.9,2.1-1.6l-5.2-5.2c-1.1.4-1.8,1-2.4,1.6-.5.6-.8,1.4-.8,2.3h0Z"/>
  <path class="st4" d="M189.6,571.5v-17h5.2c3,0,5.2.8,6.6,2.3,1.4,1.5,2.1,3.6,2.1,6.3s-.7,4.7-2.1,6.2c-1.4,1.5-3.6,2.3-6.6,2.3h-5.2ZM191.7,569.8h3.1c1.6,0,2.9-.3,3.9-.8,1-.5,1.7-1.3,2.1-2.3.4-1,.6-2.2.6-3.6s-.2-2.7-.6-3.7c-.4-1-1.1-1.8-2.1-2.4s-2.3-.8-3.9-.8h-3.1v13.5Z"/>
  <path class="st4" d="M225.8,571.5v-17h10.5v1.7h-8.4v5.9h7.7v1.6h-7.7v6.1h8.4v1.7h-10.5Z"/>
  <path class="st4" d="M264,571.5l-6.4-17h2.2l5.3,14.8,5.4-14.8h2.2l-6.4,17h-2.4Z"/>
  <path class="st4" d="M325.6,571.8c-1.2,0-2.3-.2-3.2-.7-.9-.5-1.6-1.1-2.1-1.9-.5-.8-.8-1.8-.8-2.8h2.1c0,.7.1,1.3.4,1.8.3.5.8,1,1.4,1.3.6.3,1.3.5,2.2.5s2-.3,2.7-.8c.6-.5,1-1.2,1-2s-.1-1.2-.4-1.6c-.3-.4-.7-.7-1.2-1-.5-.3-1-.5-1.7-.7-.6-.2-1.3-.4-2-.7-1.3-.5-2.3-1-2.9-1.7-.6-.7-.9-1.6-.9-2.6,0-.9.2-1.7.6-2.4.5-.7,1.1-1.2,1.9-1.6.8-.4,1.8-.6,2.8-.6s2,.2,2.8.6c.8.4,1.4,1,1.9,1.7.5.7.7,1.5.7,2.4h-2.1c0-.5-.1-.9-.4-1.4-.2-.5-.6-.9-1.1-1.1-.5-.3-1.1-.4-1.9-.4-.9,0-1.7.2-2.3.7-.6.5-.9,1.2-.9,2s.2,1.3.6,1.7,1,.7,1.7,1c.8.3,1.6.5,2.6.9.8.3,1.5.6,2.2,1,.7.4,1.2.9,1.5,1.5.4.6.5,1.4.5,2.3s-.2,1.6-.6,2.3c-.4.7-1,1.3-1.9,1.8-.9.4-1.9.7-3.2.7h0Z"/>
  <path class="st4" d="M353.6,571.5v-17h10.5v1.7h-8.5v5.9h7.7v1.6h-7.7v6.1h8.5v1.7h-10.5Z"/>
  <path class="st4" d="M386.6,571.5v-17h5.5c1.3,0,2.4.2,3.2.7.8.4,1.5,1,1.9,1.8.4.8.6,1.6.6,2.5s-.3,2-.9,2.9c-.6.8-1.5,1.5-2.7,1.8l3.7,7.3h-2.4l-3.4-7h-3.5v7h-2.1ZM388.7,563h3.3c1.3,0,2.2-.3,2.8-1,.6-.6.9-1.5.9-2.4s-.3-1.8-.9-2.4c-.6-.6-1.6-.9-2.9-.9h-3.2v6.6Z"/>
  <path class="st4" d="M425.5,571.5l-6.4-17h2.2l5.3,14.8,5.4-14.8h2.2l-6.4,17h-2.4Z"/>
  <path class="st4" d="M455.9,571.5v-17h2v17h-2Z"/>
  <path class="st4" d="M488.3,571.8c-1.7,0-3.1-.4-4.3-1.1-1.2-.7-2.1-1.8-2.8-3-.7-1.3-1-2.9-1-4.6s.3-3.2,1-4.5c.7-1.3,1.6-2.3,2.8-3.1,1.2-.8,2.6-1.1,4.3-1.1s3.5.5,4.7,1.4c1.2.9,2,2.2,2.3,3.9h-2.2c-.3-1-.8-1.9-1.6-2.5-.8-.6-1.9-1-3.2-1s-2.3.3-3.2.9c-.9.5-1.6,1.3-2.1,2.4-.5,1-.7,2.3-.7,3.7s.2,2.7.7,3.8c.5,1,1.2,1.8,2.1,2.4.9.5,2,.8,3.2.8s2.4-.3,3.2-.9c.8-.6,1.3-1.5,1.6-2.5h2.2c-.3,1.6-1.1,2.9-2.3,3.8-1.2.9-2.8,1.4-4.7,1.4h0Z"/>
  <path class="st4" d="M517.7,571.5v-17h10.5v1.7h-8.5v5.9h7.7v1.6h-7.7v6.1h8.5v1.7h-10.5Z"/>
  <path class="st4" d="M556.1,571.8c-1.2,0-2.3-.2-3.2-.7-.9-.5-1.6-1.1-2.1-1.9-.5-.8-.8-1.8-.8-2.8h2.1c0,.7.2,1.3.4,1.8.3.5.8,1,1.4,1.3.6.3,1.3.5,2.2.5s2-.3,2.7-.8c.6-.5,1-1.2,1-2s-.2-1.2-.4-1.6c-.3-.4-.7-.7-1.2-1-.5-.3-1-.5-1.7-.7-.6-.2-1.3-.4-2-.7-1.3-.5-2.3-1-2.9-1.7-.6-.7-.9-1.6-.9-2.6,0-.9.2-1.7.6-2.4.5-.7,1.1-1.2,1.9-1.6.8-.4,1.8-.6,2.8-.6s2,.2,2.8.6c.8.4,1.4,1,1.8,1.7.5.7.7,1.5.7,2.4h-2.1c0-.5-.1-.9-.4-1.4-.2-.5-.6-.9-1.1-1.1-.5-.3-1.1-.4-1.8-.4-.9,0-1.7.2-2.3.7-.6.5-.9,1.2-.9,2s.2,1.3.6,1.7,1,.7,1.7,1c.8.3,1.6.5,2.6.9.8.3,1.5.6,2.2,1,.7.4,1.2.9,1.5,1.5.4.6.5,1.4.5,2.3s-.2,1.6-.6,2.3c-.4.7-1,1.3-1.9,1.8-.8.4-1.9.7-3.2.7h0Z"/>
</svg>