<?xml version="1.0" encoding="UTF-8"?><svg id="a" xmlns="http://www.w3.org/2000/svg" xmlns:xlink="http://www.w3.org/1999/xlink" viewBox="0 0 396.95 117.34"><defs><clipPath id="b"><rect width="36.12" height="98.6" style="fill:none;"/></clipPath><clipPath id="c"><rect x="40.12" y="18.6" width="36" height="98.67" style="fill:none;"/></clipPath></defs><g style="clip-path:url(#b);"><path d="M.03,55.22v-12.26c2.49-.14,4.38-.52,5.64-1.13,1.26-.61,2.35-1.65,3.28-3.09.93-1.45,1.56-3.26,1.9-5.44.27-1.64.41-4.48.41-8.53,0-6.61.31-11.21.93-13.82s1.72-4.7,3.33-6.28c1.61-1.59,3.95-2.84,7.03-3.76C24.62.31,27.9,0,32.38,0h2.71v12.21c-3.79,0-6.23.21-7.3.64-1.08.43-1.87,1.07-2.39,1.94-.51.87-.77,2.36-.77,4.47s-.16,6.21-.46,12.21c-.17,3.37-.61,6.1-1.33,8.2s-1.64,3.82-2.74,5.18c-1.11,1.36-2.81,2.78-5.1,4.24,2.02,1.16,3.67,2.51,4.95,4.06,1.28,1.55,2.26,3.43,2.95,5.65.68,2.21,1.13,5.18,1.33,8.89.24,5.66.36,9.27.36,10.83,0,2.24.27,3.81.82,4.7s1.38,1.56,2.48,2.02c1.11.46,3.52.69,7.2.69v12.26h-2.71c-4.61,0-8.15-.37-10.61-1.1-2.46-.73-4.54-1.95-6.23-3.66-1.69-1.7-2.83-3.8-3.41-6.31-.58-2.5-.88-6.44-.88-11.82,0-6.27-.27-10.34-.82-12.21-.75-2.72-1.89-4.68-3.41-5.85-1.52-1.18-3.85-1.85-6.99-2.02" style="fill:#393536;"/></g><path d="M77.81,25.43h-8.03v-7.99h8.03v7.99" style="fill:#eeb30d;"/><path d="M75.91,41.42h-6.13v-6.1h6.13v6.1" style="fill:#eeb30d;"/><g style="clip-path:url(#c);"><path d="M52.57,31.54v-6.11h6.13v6.11h-6.13ZM68.16,60.1c-1.54-1.18-2.68-3.13-3.43-5.85-.42-1.54-.66-4.48-.74-8.83h-5.29v-7.99h5.17c-.13-3.08-.4-5.48-.81-7.21-.6-2.5-1.73-4.61-3.41-6.33-1.67-1.72-3.74-2.94-6.2-3.65-2.46-.72-5.99-1.07-10.61-1.07h-2.72v12.21c3.86,0,6.35.23,7.46.69,1.11.46,1.88,1.11,2.31,1.97.43.85.66,2.55.69,5.11.17,8.1.44,13.35.82,15.73.58,3.47,1.68,6.33,3.28,8.58,1.16,1.57,3.01,3.17,5.54,4.8-1.95,1.13-3.55,2.43-4.79,3.91-1.25,1.48-2.24,3.29-3,5.42-.75,2.13-1.21,4.96-1.39,8.51-.27,5.86-.42,9.82-.43,11.9-.02,2.08-.29,3.55-.82,4.42-.53.87-1.35,1.54-2.48,1.99s-3.52.69-7.18.69v12.26h2.72c4.47,0,7.76-.31,9.84-.92,3.11-.92,5.47-2.17,7.08-3.76,1.6-1.58,2.71-3.69,3.31-6.31.59-2.62.9-7.23.9-13.84,0-4.02.14-6.85.41-8.48.38-2.18,1.02-3.99,1.92-5.44.9-1.45,1.99-2.48,3.26-3.09,1.26-.61,3.15-.99,5.64-1.13v-12.26c-3.15-.17-5.49-.84-7.03-2.02" style="fill:#eeb30d;"/></g><path d="M93.45,9.91h-6.13V3.8h6.13v6.11" style="fill:#eeb30d;"/><path d="M62.71,17.44h-11.44V6.04h11.44v11.4" style="fill:#eeb30d;"/><path d="M90.54,22.18h4.38l12.42,32.1h-7.23l-1.94-5.31h-10.88l-1.88,5.31h-7.29l12.42-32.1ZM96.04,43.03l-3.29-9.27-3.33,9.27h6.63Z" style="fill:#393536;"/><path d="M120.14,22.74h6.88v31.54h-6.88v-31.54Z" style="fill:#393536;"/><path d="M142.87,22.74h6.88v25.1h10.92v6.44h-17.79v-31.54Z" style="fill:#393536;"/><path d="M174.4,22.74h18.04v6.46h-11.17v5.79h8.15v6.44h-8.15v6.42h11.4v6.44h-18.27v-31.54Z" style="fill:#393536;"/><path d="M213.25,42.99l-9.65-20.25h7.48l5.79,12.77,5.92-12.77h7.1l-9.77,20.15v11.4h-6.88v-11.29Z" style="fill:#393536;"/><path d="M267.75,29.2h-9.19v-6.46h25.23v6.46h-9.19v25.08h-6.85v-25.08Z" style="fill:#393536;"/><path d="M297.06,22.74h18.04v6.46h-11.17v5.79h8.15v6.44h-8.15v6.42h11.4v6.44h-18.27v-31.54Z" style="fill:#393536;"/><path d="M344.5,54.95c-2.35,0-4.53-.41-6.54-1.23-2-.82-3.73-1.96-5.19-3.42s-2.6-3.19-3.42-5.19c-.82-2.01-1.23-4.2-1.23-6.56s.42-4.52,1.25-6.52c.83-2.01,1.98-3.76,3.44-5.23,1.46-1.47,3.18-2.63,5.17-3.46,2-.83,4.16-1.25,6.48-1.25,2.44,0,4.71.47,6.81,1.42,2.11.93,3.94,2.28,5.48,4.04l-4.81,4.67c-.91-1.07-1.98-1.91-3.23-2.52-1.24-.61-2.59-.92-4.06-.92-1.35,0-2.59.24-3.73.73-1.13.49-2.1,1.16-2.94,2.02-.83.86-1.48,1.89-1.94,3.08-.45,1.2-.67,2.48-.67,3.85s.23,2.72.71,3.92c.47,1.18,1.11,2.22,1.94,3.1.83.88,1.83,1.56,3,2.04,1.17.49,2.44.73,3.81.73,1.5,0,2.88-.31,4.13-.94,1.26-.64,2.33-1.48,3.21-2.54l4.81,4.56c-1.52,1.79-3.33,3.18-5.46,4.15-2.11.97-4.45,1.46-7.02,1.46Z" style="fill:#393536;"/><path d="M370.24,22.74h6.88v12.33h12.29v-12.33h6.88v31.54h-6.88v-12.75h-12.29v12.75h-6.88v-31.54Z" style="fill:#393536;"/><path d="M83.06,74.23l-2.83-10.35h1.33l2.23,8.88,2.54-8.88h1.38l2.46,8.88,2.25-8.88h1.33l-2.9,10.33h-1.42l-2.46-8.52-2.52,8.52-1.4.02Z" style="fill:#eeb30d;"/><path d="M106.98,74.21v-10.33h6.4v1.02h-5.15v3.6h4.71v1h-4.71v3.69h5.15v1.02h-6.4Z" style="fill:#eeb30d;"/><path d="M127.09,74.21v-10.33h3.65c.72,0,1.32.12,1.79.35.48.24.84.56,1.08.96.23.39.35.83.35,1.31,0,.68-.18,1.22-.54,1.6-.36.38-.79.64-1.29.77.38.07.72.22,1.04.46.32.24.57.54.75.9.18.35.27.74.27,1.17,0,.52-.14.99-.4,1.42-.25.43-.63.77-1.13,1.02s-1.11.38-1.83.38h-3.75ZM128.34,68.4h2.29c.67,0,1.17-.15,1.52-.46.36-.32.54-.75.54-1.29s-.18-.94-.54-1.25c-.35-.32-.87-.48-1.56-.48h-2.25v3.48ZM128.34,73.17h2.38c.71,0,1.25-.16,1.63-.48.39-.33.58-.79.58-1.38s-.2-1.05-.6-1.4c-.41-.36-.95-.54-1.65-.54h-2.33v3.79Z" style="fill:#eeb30d;"/><path d="M150.82,74.38c-.71,0-1.33-.13-1.88-.38-.53-.26-.95-.63-1.25-1.08-.29-.47-.44-1.03-.44-1.67,0-.71.2-1.33.6-1.88.4-.54.99-.97,1.77-1.29-.33-.36-.58-.7-.73-1.02-.14-.33-.21-.69-.21-1.08,0-.65.23-1.19.69-1.63.47-.43,1.11-.65,1.94-.65.53,0,.98.1,1.38.31.4.2.71.47.92.83.22.35.32.74.31,1.19h-1.23c.01-.43-.13-.76-.42-.98-.28-.23-.6-.35-.96-.35-.45,0-.79.12-1.04.35-.24.24-.35.54-.35.9,0,.32.08.63.25.92.18.29.44.63.77,1l3.27,3.27c.28-.4.58-.9.92-1.48l.46-.79h1.31l-.65,1.15c-.43.78-.84,1.43-1.23,1.94l2.23,2.25h-1.56l-1.38-1.4c-.53.57-1.07.97-1.63,1.21-.56.23-1.18.35-1.88.35ZM148.49,71.21c0,.6.21,1.1.65,1.52.43.41,1,.6,1.71.6.51,0,.98-.1,1.42-.31.43-.21.85-.54,1.27-1l-3.15-3.17c-.64.25-1.12.58-1.44.98-.31.39-.46.85-.46,1.38Z" style="fill:#eeb30d;"/><path d="M170.34,74.21v-10.33h3.19c1.82,0,3.15.47,4,1.4.86.93,1.29,2.2,1.29,3.81s-.43,2.83-1.29,3.75c-.85.92-2.18,1.38-4,1.38h-3.19ZM171.59,73.17h1.9c1,0,1.8-.16,2.4-.48.59-.33,1.02-.8,1.27-1.42.26-.61.4-1.34.4-2.19s-.14-1.61-.4-2.23c-.25-.63-.68-1.1-1.27-1.44-.6-.33-1.4-.5-2.4-.5h-1.9v8.25Z" style="fill:#eeb30d;"/><path d="M192.39,74.21v-10.33h6.4v1.02h-5.15v3.6h4.71v1h-4.71v3.69h5.15v1.02h-6.4Z" style="fill:#eeb30d;"/><path d="M215.63,74.21l-3.88-10.33h1.33l3.25,9.02,3.29-9.02h1.31l-3.88,10.33h-1.44Z" style="fill:#eeb30d;"/><path d="M253.14,74.38c-.75,0-1.41-.14-1.98-.4-.56-.28-.99-.66-1.29-1.15-.31-.5-.46-1.07-.46-1.73h1.29c0,.41.09.78.27,1.13.19.33.47.6.83.81.36.2.8.29,1.33.29.71,0,1.25-.17,1.63-.5.39-.33.58-.75.58-1.25,0-.42-.09-.75-.27-1-.18-.25-.43-.45-.73-.6-.29-.17-.64-.3-1.02-.42-.39-.13-.79-.26-1.21-.4-.81-.28-1.41-.61-1.79-1.02-.38-.42-.56-.95-.56-1.6-.02-.55.11-1.04.38-1.46.28-.43.66-.76,1.15-1,.48-.25,1.06-.38,1.73-.38s1.22.13,1.71.38c.48.24.86.58,1.13,1.02.28.43.42.92.44,1.46h-1.29c0-.28-.08-.55-.23-.83-.14-.29-.36-.52-.67-.69-.31-.18-.68-.27-1.13-.27-.57-.01-1.04.14-1.4.44-.35.29-.52.7-.52,1.21,0,.45.13.79.38,1.02.25.24.59.43,1.04.58.46.16.98.33,1.56.52.5.18.94.39,1.33.63.4.24.71.54.92.92.22.38.33.85.33,1.42,0,.5-.13.97-.38,1.42-.25.43-.64.79-1.17,1.06-.52.26-1.16.4-1.94.4Z" style="fill:#eeb30d;"/><path d="M270.16,74.21v-10.33h6.4v1.02h-5.15v3.6h4.71v1h-4.71v3.69h5.15v1.02h-6.4Z" style="fill:#eeb30d;"/><path d="M290.27,74.21v-10.33h3.33c.8,0,1.46.14,1.98.42.51.27.89.63,1.13,1.08.25.46.38.97.38,1.54,0,.64-.18,1.22-.52,1.75-.35.52-.89.89-1.63,1.1l2.25,4.44h-1.46l-2.08-4.27h-2.13v4.27h-1.25ZM291.52,68.98h2c.79,0,1.36-.19,1.73-.58.38-.39.56-.88.56-1.48s-.18-1.09-.54-1.44c-.36-.36-.95-.54-1.77-.54h-1.98v4.04Z" style="fill:#eeb30d;"/><path d="M313.93,74.21l-3.88-10.33h1.33l3.25,9.02,3.29-9.02h1.31l-3.88,10.33h-1.44Z" style="fill:#eeb30d;"/><path d="M332.44,74.21v-10.33h1.25v10.33h-1.25Z" style="fill:#eeb30d;"/><path d="M352.2,74.38c-1.02,0-1.89-.22-2.63-.67-.74-.44-1.31-1.06-1.71-1.85-.41-.8-.6-1.74-.6-2.81s.2-1.98.6-2.77c.4-.8.97-1.43,1.71-1.88.73-.46,1.61-.69,2.63-.69,1.18,0,2.14.29,2.88.85.75.56,1.22,1.34,1.42,2.35h-1.35c-.17-.64-.49-1.15-.98-1.54-.49-.39-1.14-.58-1.96-.58-.74,0-1.39.18-1.94.52-.56.33-.99.82-1.29,1.46-.29.63-.44,1.39-.44,2.27s.15,1.66.44,2.29c.3.63.73,1.11,1.29,1.46.55.33,1.2.5,1.94.5.82,0,1.47-.19,1.96-.56.48-.38.81-.88.98-1.52h1.35c-.2,1-.67,1.78-1.42,2.33-.74.56-1.7.83-2.88.83Z" style="fill:#eeb30d;"/><path d="M370.07,74.21v-10.33h6.4v1.02h-5.15v3.6h4.71v1h-4.71v3.69h5.15v1.02h-6.4Z" style="fill:#eeb30d;"/><path d="M393.47,74.38c-.75,0-1.41-.14-1.98-.4-.56-.28-.99-.66-1.29-1.15-.31-.5-.46-1.07-.46-1.73h1.29c0,.41.09.78.27,1.13.19.33.47.6.83.81.36.2.8.29,1.33.29.71,0,1.25-.17,1.63-.5.39-.33.58-.75.58-1.25,0-.42-.09-.75-.27-1-.18-.25-.43-.45-.73-.6-.29-.17-.64-.3-1.02-.42-.39-.13-.79-.26-1.21-.4-.81-.28-1.41-.61-1.79-1.02-.38-.42-.56-.95-.56-1.6-.02-.55.11-1.04.38-1.46.28-.43.66-.76,1.15-1,.48-.25,1.06-.38,1.73-.38s1.22.13,1.71.38c.48.24.86.58,1.13,1.02.28.43.42.92.44,1.46h-1.29c0-.28-.08-.55-.23-.83-.14-.29-.36-.52-.67-.69-.31-.18-.68-.27-1.13-.27-.57-.01-1.04.14-1.4.44-.35.29-.52.7-.52,1.21,0,.45.13.79.38,1.02.25.24.59.43,1.04.58.46.16.98.33,1.56.52.5.18.94.39,1.33.63.4.24.71.54.92.92.22.38.33.85.33,1.42,0,.5-.13.97-.38,1.42-.25.43-.64.79-1.17,1.06-.52.26-1.16.4-1.94.4Z" style="fill:#eeb30d;"/></svg>